<svg width="447" height="68" viewBox="0 0 447 68" fill="none" xmlns="http://www.w3.org/2000/svg">
<path d="M0 33.8463C0 13.1726 17.5635 0 41.7133 0C65.8631 0 79.4016 11.4346 79.859 28.2662L59.0024 28.9066C58.4535 19.576 50.1749 13.447 41.7133 13.63C30.0958 13.8587 21.497 21.5885 21.497 33.8463C21.497 46.1042 30.0958 53.6967 41.7133 53.6967C50.1749 53.6967 58.2705 47.8422 59.1853 38.5116L80.042 38.969C79.4931 56.0751 65.1313 67.6926 41.7133 67.6926C18.2953 67.6926 0 54.4285 0 33.8463Z" fill="white"></path>
<path d="M273.058 15.0937H305.99V1.82962H252.201V65.8632H306.63V52.1417H273.058V39.518H301.873V27.3516H273.058V15.0937Z" fill="white"></path>
<path d="M392.114 1.82962H447V65.8632H392.114V1.82962Z" fill="white"></path>
<path fill-rule="evenodd" clip-rule="evenodd" d="M87.4053 33.8463C87.4053 13.447 103.917 0 127.655 0C151.393 0 167.905 13.3556 167.905 33.8463C167.905 54.3371 151.393 67.6926 127.655 67.6926C103.917 67.6926 87.4053 54.2456 87.4053 33.8463ZM108.902 33.8463C108.902 45.7383 116.632 53.8797 127.655 53.8797C138.769 53.8797 146.408 45.9212 146.408 33.8463C146.408 21.7714 138.678 13.447 127.655 13.447C116.632 13.447 108.902 21.9544 108.902 33.8463Z" fill="white"></path>
<path fill-rule="evenodd" clip-rule="evenodd" d="M175.268 65.8632V1.82962H201.796C227.501 1.82962 244.79 13.813 244.79 33.8464C244.79 53.8798 227.501 65.8632 201.796 65.8632H175.268ZM196.308 53.0565H200.882C214.42 53.0565 223.476 46.1043 223.476 33.8464C223.476 21.5886 214.42 14.5449 200.882 14.5449H196.308V53.0565Z" fill="white"></path>
<path fill-rule="evenodd" clip-rule="evenodd" d="M359.182 36.1333C371.851 36.9566 377.843 43.4972 380.313 53.5139L382.874 65.8632H358.816L356.803 54.4286C355.065 47.019 349.119 44.3662 342.442 44.3662H336.861V65.8632H315.822V1.82962H349.211C368.421 1.82962 380.13 8.87331 380.13 20.3079C380.13 29.73 372.171 35.5845 359.182 35.5845V36.1333ZM336.861 33.1146H347.381C354.608 33.1146 359.09 29.4555 359.09 23.601C359.09 17.7465 354.608 14.179 347.381 14.179H336.861V33.1146Z" fill="white"></path>
</svg>